<svg width="79" height="9" viewBox="0 0 79 9" fill="none" xmlns="http://www.w3.org/2000/svg">
<path d="M71.8576 5.31625L75.3016 0.15625H78.4096V8.11225H76.2616V2.36425L72.8296 7.53625H70.8616L67.3936 2.14825V8.11225H65.2576V0.15625H68.5216L71.8576 5.31625Z" fill="white"/>
<path d="M64.0418 8.11225H61.7258L60.8498 6.67225H55.2578L54.3698 8.11225H52.1138L57.1058 0.15625H59.0498L64.0418 8.11225ZM58.0778 2.07625L56.1458 5.22025H59.9738L58.0778 2.07625Z" fill="white"/>
<path d="M45.5256 7.99992C41.2773 8.01151 39.5198 6.79413 39.5198 4.26662V3.69851C39.5198 1.19419 41.2773 0 45.5256 0C49.7623 0 51.5198 1.19419 51.5198 3.69851V4.26662C51.5198 6.79413 49.7623 8.01151 45.5256 7.99992ZM45.5256 6.19124C48.2841 6.19124 49.3549 5.66951 49.3549 4.1159V3.83764C49.3549 2.31882 48.2957 1.80868 45.5256 1.80868C42.7555 1.80868 41.6963 2.31882 41.6963 3.83764V4.1159C41.6963 5.66951 42.7671 6.19124 45.5256 6.19124Z" fill="white"/>
<path d="M49.5198 4V7H46.5198V4C47.5198 4 48.5198 4 49.5198 4Z" fill="white"/>
<path d="M31.674 7.99992C27.4257 8.01151 25.6682 6.79413 25.6682 4.26662V3.69851C25.6682 1.19419 27.4257 0 31.674 0C35.9107 0 37.6682 1.19419 37.6682 3.69851V4.26662C37.6682 6.79413 35.9107 8.01151 31.674 7.99992ZM31.674 6.19124C34.4325 6.19124 35.5033 5.66951 35.5033 4.1159V3.83764C35.5033 2.31882 34.4442 1.80868 31.674 1.80868C28.9039 1.80868 27.8447 2.31882 27.8447 3.83764V4.1159C27.8447 5.66951 28.9155 6.19124 31.674 6.19124Z" fill="white"/>
<path d="M35.6682 4V7H32.6682V4C33.6682 4 34.6682 4 35.6682 4Z" fill="white"/>
<path d="M18.0086 8.28C13.6286 8.292 11.8167 7.032 11.8167 4.416V3.828C11.8167 1.236 13.6286 0 18.0086 0C22.3766 0 24.1887 1.236 24.1887 3.828V4.416C24.1887 7.032 22.3766 8.292 18.0086 8.28ZM18.0086 6.408C20.8526 6.408 21.9566 5.868 21.9566 4.26V3.972C21.9566 2.4 20.8647 1.872 18.0086 1.872C15.1526 1.872 14.0606 2.4 14.0606 3.972V4.26C14.0606 5.868 15.1646 6.408 18.0086 6.408Z" fill="white"/>
<path d="M5.268 8.2807C1.02 8.2807 0 7.1647 0 5.5927V5.4967H2.232V5.5807C2.232 6.3367 2.964 6.7207 5.268 6.7207C7.74 6.7207 8.46 6.4687 8.46 5.7847V5.7487C8.448 5.2807 8.1 5.0287 7.176 4.9807L3.312 4.8007C1.332 4.7047 0.132 4.0927 0.132 2.4967V2.4727C0.144 0.924695 1.26 0.0126953 5.172 0.0126953C9.12 0.0126953 10.284 1.0567 10.284 2.6167V2.7367H8.064V2.6407C8.064 1.9327 7.308 1.5727 5.088 1.5727C2.808 1.5727 2.28 1.8607 2.268 2.4007V2.4127C2.268 2.9167 2.652 3.1207 3.612 3.1807L7.584 3.3727C9.72 3.4927 10.596 4.1887 10.596 5.5927V5.6287C10.596 7.4047 9.348 8.2807 5.268 8.2807Z" fill="white"/>
</svg>
